<?xml version="1.0" encoding="UTF-8"?>
<svg width="800" height="600" version="1.1" viewBox="0 0 800 600" xmlns="http://www.w3.org/2000/svg">
  <!-- Black rectangular background -->
  <rect x="0" y="0" width="800" height="600" fill="#000"/>
  
  <!-- Main T shape in white -->
  <path d="M250 100 L550 100 L550 200 L450 200 L450 500 L350 500 L350 200 L250 200 Z" fill="#fff"/>
  
  <!-- Diagonal stripes -->
  <g fill="#fff" opacity="0.3">
    <path d="M250 100 L350 100 L250 200 Z"/>
    <path d="M350 100 L450 100 L350 200 Z"/>
    <path d="M450 100 L550 100 L550 200 L450 200 L500 150 Z"/>
    <path d="M350 200 L450 200 L350 300 Z"/>
    <path d="M350 300 L350 400 L250 300 Z"/>
    <path d="M350 400 L350 500 L250 400 Z"/>
  </g>
</svg>
