<?xml version="1.0" encoding="UTF-8"?>
<svg width="32" height="24" version="1.1" viewBox="0 0 32 24" xmlns="http://www.w3.org/2000/svg">
  <!-- Black rectangular background -->
  <rect x="0" y="0" width="32" height="24" fill="#000"/>
  
  <!-- Main T shape in white -->
  <path d="M8 4 L24 4 L24 8 L18 8 L18 20 L14 20 L14 8 L8 8 Z" fill="#fff"/>
  
  <!-- Diagonal stripes -->
  <g fill="#fff" opacity="0.3">
    <path d="M8 4 L14 4 L8 8 Z"/>
    <path d="M14 4 L18 4 L14 8 Z"/>
    <path d="M18 4 L24 4 L24 8 L18 8 L21 6 Z"/>
    <path d="M14 8 L18 8 L14 12 Z"/>
    <path d="M14 12 L14 16 L8 12 Z"/>
    <path d="M14 16 L14 20 L8 16 Z"/>
  </g>
</svg> 