<?xml version="1.0" encoding="UTF-8"?>
<svg width="192" height="144" version="1.1" viewBox="0 0 192 144" xmlns="http://www.w3.org/2000/svg">
  <!-- Black rectangular background -->
  <rect x="0" y="0" width="192" height="144" fill="#000"/>
  
  <!-- Main T shape in white -->
  <path d="M60 24 L132 24 L132 48 L108 48 L108 120 L84 120 L84 48 L60 48 Z" fill="#fff"/>
  
  <!-- Diagonal stripes -->
  <g fill="#fff" opacity="0.3">
    <path d="M60 24 L84 24 L60 48 Z"/>
    <path d="M84 24 L108 24 L84 48 Z"/>
    <path d="M108 24 L132 24 L132 48 L108 48 L120 36 Z"/>
    <path d="M84 48 L108 48 L84 72 Z"/>
    <path d="M84 72 L84 96 L60 72 Z"/>
    <path d="M84 96 L84 120 L60 96 Z"/>
  </g>
</svg> 